<?xml version="1.0" encoding="utf-8"?>
<!-- Generator: Adobe Illustrator 15.0.0, SVG Export Plug-In . SVG Version: 6.00 Build 0)  -->
<!DOCTYPE svg PUBLIC "-//W3C//DTD SVG 1.1//EN" "http://www.w3.org/Graphics/SVG/1.1/DTD/svg11.dtd">
<svg version="1.1" id="Layer_1" xmlns="http://www.w3.org/2000/svg" xmlns:xlink="http://www.w3.org/1999/xlink" x="0px" y="0px"
	 width="150px" height="150px" viewBox="0 0 150 150" enable-background="new 0 0 150 150" xml:space="preserve">
<path fill="#F7941E" d="M74.999,0.36C33.827,0.36,0.36,33.828,0.36,74.999c0,41.172,33.468,74.641,74.639,74.641
	c41.172,0,74.64-33.469,74.64-74.641C149.639,33.828,116.172,0.36,74.999,0.36z M53.089,113.282H36.476V59.832h16.613V113.282z
	 M44.662,53.331c-5.297,0-8.667-3.613-8.667-8.428c0-4.815,3.612-8.427,8.909-8.427c5.297,0,8.668,3.612,8.668,8.427
	C53.812,49.478,50.201,53.331,44.662,53.331z M114.005,113.282H97.391V83.667c0-6.982-2.408-11.557-8.428-11.557
	c-4.574,0-7.223,3.131-8.427,6.26c-0.723,0.963-0.723,2.648-0.723,4.092v30.82H63.2V76.925c0-6.741-0.241-12.279-0.481-17.094
	h14.446l0.724,7.464h0.24c2.168-3.612,7.466-8.668,16.614-8.668c10.836,0,19.262,7.223,19.262,23.115V113.282L114.005,113.282z"/>
</svg>
