<svg xmlns="http://www.w3.org/2000/svg" xmlns:xlink="http://www.w3.org/1999/xlink" version="1.1" id="Layer_1" x="0px" y="0px" viewBox="0 0 40 40" enable-background="new 0 0 40 40" xml:space="preserve" fill="#0f2a60">
<g>
<polygon points="17.3,23.8 23.9,20 17.4,16.1  "></polygon>
<path d="M20.2,0C9.1-0.1,0.1,8.8,0,19.8S8.8,39.9,19.8,40S39.9,31.2,40,20.2C40.1,9.2,31.2,0.1,20.2,0z M30,23.7   c0,3.4-3.5,3.4-3.5,3.4L13.4,27c-3.4,0-3.4-3.5-3.4-3.5l0.1-7.2c0-3.4,3.5-3.4,3.5-3.4L26.6,13c3.4,0,3.4,3.5,3.4,3.5L30,23.7z"></path>
</g>
</svg>