<svg xmlns="http://www.w3.org/2000/svg" xmlns:xlink="http://www.w3.org/1999/xlink" version="1.1" id="Layer_1" x="0px" y="0px" viewBox="0 0 64 64" enable-background="new 0 0 64 64" xml:space="preserve" fill='#f7941e'>
<path d="M32,1C14.9,1,1,14.9,1,32c0,17.1,13.9,31,31,31c17.1,0,31-13.9,31-31C63,14.9,49.1,1,32,1z M22.9,47.9H16  V25.7h6.9V47.9z M19.4,23c-2.2,0-3.6-1.5-3.6-3.5c0-2,1.5-3.5,3.7-3.5c2.2,0,3.6,1.5,3.6,3.5C23.2,21.4,21.7,23,19.4,23z M48.2,47.9  h-6.9V35.6c0-2.9-1-4.8-3.5-4.8c-1.9,0-3,1.3-3.5,2.6C34,33.8,34,34.5,34,35.1v12.8h-6.9V32.8c0-2.8-0.1-5.1-0.2-7.1h6l0.3,3.1h0.1  c0.9-1.5,3.1-3.6,6.9-3.6c4.5,0,8,3,8,9.6V47.9z"></path>
</svg>