<svg xmlns="http://www.w3.org/2000/svg" xmlns:xlink="http://www.w3.org/1999/xlink" version="1.1" id="Layer_1" x="0px" y="0px" viewBox="0 0 40 40" enable-background="new 0 0 40 40" xml:space="preserve" fill="#0f2a60">
<path d="M20,0C9,0,0,9,0,20c0,11,9,20,20,20s20-9,20-20C40,9,31,0,20,0z M28,16.9c0,0.2,0,0.4,0,0.5  c0,5.4-4.1,11.7-11.7,11.7c-2.3,0-4.5-0.7-6.3-1.8c0.3,0,0.7,0.1,1,0.1c1.9,0,3.7-0.7,5.1-1.8c-1.8,0-3.3-1.2-3.8-2.9  c0.2,0,0.5,0.1,0.8,0.1c0.4,0,0.7,0,1.1-0.1c-1.9-0.4-3.3-2-3.3-4v-0.1c0.6,0.3,1.2,0.5,1.9,0.5c-1.1-0.7-1.8-2-1.8-3.4  c0-0.8,0.2-1.5,0.6-2.1c2,2.5,5.1,4.1,8.5,4.3c-0.1-0.3-0.1-0.6-0.1-0.9c0-2.3,1.8-4.1,4.1-4.1c1.2,0,2.3,0.5,3,1.3  c0.9-0.2,1.8-0.5,2.6-1c-0.3,1-1,1.8-1.8,2.3c0.8-0.1,1.6-0.3,2.4-0.6C29.5,15.6,28.8,16.3,28,16.9z"></path>
</svg>