<?xml version="1.0" encoding="utf-8"?>
<!-- Generator: Adobe Illustrator 15.0.0, SVG Export Plug-In . SVG Version: 6.00 Build 0)  -->
<!DOCTYPE svg PUBLIC "-//W3C//DTD SVG 1.1//EN" "http://www.w3.org/Graphics/SVG/1.1/DTD/svg11.dtd">
<svg version="1.1" id="Layer_1" xmlns="http://www.w3.org/2000/svg" xmlns:xlink="http://www.w3.org/1999/xlink" x="0px" y="0px"
	 width="800px" height="200px" viewBox="0 0 800 200" enable-background="new 0 0 800 200" xml:space="preserve">
<path fill="#F7941E" d="M400,0c-55,0-100,45-100,100s45,100,100,100s100-45,100-100S455,0,400,0z M440,84.5c0,1,0,2,0,2.5
	c0,27-20.5,58.5-58.5,58.5c-11.5,0-22.5-3.5-31.5-9c1.5,0,3.5,0.5,5,0.5c9.5,0,18.5-3.5,25.5-9c-9,0-16.5-6-19-14.5
	c1,0,2.5,0.5,4,0.5c2,0,3.5,0,5.5-0.5c-9.5-2-16.5-10-16.5-20V93c3,1.5,6,2.5,9.5,2.5c-5.5-3.5-9-10-9-17c0-4,1-7.5,3-10.5
	c10,12.5,25.5,20.5,42.5,21.5c-0.5-1.5-0.5-3-0.5-4.5c0-11.5,9-20.5,20.5-20.5c6,0,11.5,2.5,15,6.5c4.5-1,9-2.5,13-5
	c-1.5,5-5,9-9,11.5c4-0.5,8-1.5,12-3C447.5,78,444,81.5,440,84.5z"/>
</svg>
